{
	"next_topic_id": 4,
	"topic": [
		{
			"topic_id": 1,
			"category": "movies",
			"title": "Baywatch.2017.FIRST.VHS.EDITION.1080p.VHS.x264-TRACKEDiP [REMIX]",
			"torrent_imdb": "",
			"body": "THIS IS NOT THE ACTUAL FILM, IT IS A REMIX CREATED BY THE P2P ECOSYSTEM.\nREMOVED FROM YOUTUBE; THE ONLY WAY THIS CAN CIRCULATE, IS BY THE AUTONOMOUS NETWORK WHICH RESISTS THE COPYRIGHT REGIME.\n\n===========================================================\n\nBaywatch.2017.FIRST.VHS.EDITION.1080p.VHS.x264-TRACKEDiP.mp4\n\nFormat                                   : MPEG-4\nFormat profile                           : Base Media\nFile size                                : 3.69 GiB\nDuration                                 : 2 h 1 min\nOverall bit rate                         : 4 355 kb/s\n\nVideo\nID                                       : 1\nFormat                                   : AVC\nFormat/Info                              : Advanced Video Codec\nFormat profile                           : High@L4\nFormat settings, CABAC                   : Yes\nFormat settings, ReFrames                : 2 frames\nCodec ID                                 : avc1\nCodec ID/Info                            : Advanced Video Coding\nDuration                                 : 2 h 1 min\nBit rate                                 : 4 224 kb/s\nWidth                                    : 1 920 pixels\nHeight                                   : 1 080 pixels\nDisplay aspect ratio                     : 16:9\nFrame rate mode                          : Constant\nFrame rate                               : 25.000 FPS\nColor space                              : YUV\nChroma subsampling                       : 4:2:0\nBit depth                                : 8 bits\nScan type                                : Progressive\nBits/(Pixel*Frame)                       : 0.081\nStream size                              : 3.58 GiB (97%)\nColor range                              : Limited\nColor primaries                          : BT.709\nTransfer characteristics                 : BT.709\nMatrix coefficients                      : BT.709\n\nAudio\nID                                       : 2\nFormat                                   : AAC\nFormat/Info                              : Advanced Audio Codec\nFormat profile                           : LC\nCodec ID                                 : 40\nDuration                                 : 2 h 1 min\nBit rate mode                            : Constant\nBit rate                                 : 126 kb/s\nChannel(s)                               : 2 channels\nChannel positions                        : Front: L R\nSampling rate                            : 44.1 kHz\nCompression mode                         : Lossy\nStream size                              : 109 MiB (3%)\nDefault                                  : Yes\n\n===========================================================\n\nThe film was extracted via the online swarm, it was then recorded into a VHS tape.\n\nThe IP's present in the swarm were logged in a text file, which ended being printed into a binary text.\n\nThe tape from the VHS was extracted from the cartridge, and set under a ruler. Every centimeter was taken either as a \"0\" or a \"1\" binary value. The order was read and assigned as the one from the binary code, for the IP addresses.\n\nA pair of buzz magnets, sized one centimeter in diameter, were used to write the \"0\" values on the tape, by placing them on top of the ruler. Big magnets erase magnetic tape, just like a zero value (about 66 IP addresses can remix 70 meters of tape).\n\nThe final capture from the VCR, is an audiovisual remix for the commercial film (protected as the holy good, that must not be touched, or used elsewhere but the heavenly main market) and the exact internet addresses of those who broke the business  copyright rules, inside the autonomous web (the P2P swarm), both merged as one last piece of video.\n\nThe same process will be repeated using the video from the last Baywatch VHS edition, triggered by each time a new VHS edition  is rejected by the Content ID system, creating a loop between the centralized, and the decentralized networks.\n\n============================================================\n\nLet's find a neutral place where sharing will flourish, take everything from the past and your surroundings, and make  different configurations with it.",
			"magnet": "magnet:?xt=urn:btih:a2c9d03cadd9ec66529f81187e69dff9a7485014&dn=Baywatch.2017.FIRST.VHS.EDITION.1080p.VHS.x264-TRACKEDiP&tr=udp%3A%2F%2Ftracker.leechers-paradise.org%3A6969&tr=udp%3A%2F%2Fzer0day.ch%3A1337&tr=udp%3A%2F%2Fopen.demonii.com%3A1337&tr=udp%3A%2F%2Ftracker.coppersurfer.tk%3A6969&tr=udp%3A%2F%2Fexodus.desync.com%3A6969",
			"torrent_file": "data/users/1Njrafe99ufDwSryeyohshvYwAkaqBYPrW/Baywatch.2017.FIRST.VHS.EDITION.1080p.WEB-DL.x264-TRACKEDiP.torrent",
			"added": 1508140037
		},
		{
			"topic_id": 2,
			"category": "movies",
			"title": "Baywatch.2017.FIRST.VHS.EDITION.720p.VHS.x264-TRACKEDiP [REMIX]",
			"torrent_imdb": "",
			"body": "THIS IS NOT THE ACTUAL FILM, IT IS A REMIX CREATED BY THE P2P ECOSYSTEM.\nREMOVED FROM YOUTUBE; THE ONLY WAY THIS CAN CIRCULATE, IS BY THE AUTONOMOUS NETWORK WHICH RESISTS THE COPYRIGHT REGIME.\n\n===========================================================\n\nBaywatch.2017.FIRST.VHS.EDITION.720p.VHS.x264-TRACKEDiP.mp4\n\nFormat                                   : MPEG-4\nFormat profile                           : Base Media\nFile size                                : 2.26 GiB\nDuration                                 : 2 h 1 min\nOverall bit rate                         : 2 663 kb/s\n\nVideo\nID                                       : 1\nFormat                                   : AVC\nFormat/Info                              : Advanced Video Codec\nFormat profile                           : Main@L3.1\nFormat settings, CABAC                   : Yes\nFormat settings, ReFrames                : 1 frame\nCodec ID                                 : avc1\nCodec ID/Info                            : Advanced Video Coding\nDuration                                 : 2 h 1 min\nBit rate                                 : 2 532 kb/s\nWidth                                    : 1 280 pixels\nHeight                                   : 720 pixels\nDisplay aspect ratio                     : 16:9\nFrame rate mode                          : Constant\nFrame rate                               : 25.000 FPS\nColor space                              : YUV\nChroma subsampling                       : 4:2:0\nBit depth                                : 8 bits\nScan type                                : Progressive\nBits/(Pixel*Frame)                       : 0.110\nStream size                              : 2.14 GiB (95%)\nColor range                              : Limited\nColor primaries                          : BT.709\nTransfer characteristics                 : BT.709\nMatrix coefficients                      : BT.709\n\nAudio\nID                                       : 2\nFormat                                   : AAC\nFormat/Info                              : Advanced Audio Codec\nFormat profile                           : LC\nCodec ID                                 : 40\nDuration                                 : 2 h 1 min\nBit rate mode                            : Constant\nBit rate                                 : 126 kb/s\nChannel(s)                               : 2 channels\nChannel positions                        : Front: L R\nSampling rate                            : 44.1 kHz\nCompression mode                         : Lossy\nStream size                              : 109 MiB (5%)\nDefault                                  : Yes\n\n===========================================================\n\nThe film was extracted via the online swarm, it was then recorded into a VHS tape.\n\nThe IP's present in the swarm were logged in a text file, which ended being printed into a binary text.\n\nThe tape from the VHS was extracted from the cartridge, and set under a ruler. Every centimeter was taken either as a \"0\" or a \"1\" binary value. The order was read and assigned as the one from the binary code, for the IP addresses.\n\nA pair of buzz magnets, sized one centimeter in diameter, were used to write the \"0\" values on the tape, by placing them on top of the ruler. Big magnets erase magnetic tape, just like a zero value (about 66 IP addresses can remix 70 meters of tape).\n\nThe final capture from the VCR, is an audiovisual remix for the commercial film (protected as the holy good, that must not be touched, or used elsewhere but the heavenly main market) and the exact internet addresses of those who broke the business  copyright rules, inside the autonomous web (the P2P swarm), both merged as one last piece of video.\n\nThe same process will be repeated using the video from the last Baywatch VHS edition, triggered by each time a new VHS edition  is rejected by the Content ID system, creating a loop between the centralized, and the decentralized networks.\n\n============================================================\n\nLet's find a neutral place where sharing will flourish, take everything from the past and your surroundings, and make  different configurations with it.",
			"magnet": "magnet:?xt=urn:btih:74676a78b76dae4010507b6af7caafb9aba68b3b&dn=Baywatch.2017.FIRST.VHS.EDITION.720p.VHS.x264-TRACKEDiP&tr=udp%3A%2F%2Ftracker.leechers-paradise.org%3A6969&tr=udp%3A%2F%2Fzer0day.ch%3A1337&tr=udp%3A%2F%2Fopen.demonii.com%3A1337&tr=udp%3A%2F%2Ftracker.coppersurfer.tk%3A6969&tr=udp%3A%2F%2Fexodus.desync.com%3A6969",
			"torrent_file": "data/users/1Njrafe99ufDwSryeyohshvYwAkaqBYPrW/Baywatch.2017.FIRST.VHS.EDITION.1080p.WEB-DL.x264-TRACKEDiP.torrent",
			"added": 1508140119
		},
		{
			"topic_id": 3,
			"category": "movies",
			"title": "Baywatch.2017.FIRST.VHS.EDITION.480p.VHS.x264-TRACKEDiP [REMIX]",
			"torrent_imdb": "",
			"body": "THIS IS NOT THE ACTUAL FILM, IT IS A REMIX CREATED BY THE P2P ECOSYSTEM.\nREMOVED FROM YOUTUBE; THE ONLY WAY THIS CAN CIRCULATE, IS BY THE AUTONOMOUS NETWORK WHICH RESISTS THE COPYRIGHT REGIME.\n\n===========================================================\n\nBaywatch.2017.FIRST.VHS.EDITION.480p.VHS.x264-TRACKEDiP.mp4\n\nFormat                                   : MPEG-4\nFormat profile                           : Base Media\nFile size                                : 1.20 GiB\nDuration                                 : 2 h 1 min\nOverall bit rate                         : 1 416 kb/s\n\nVideo\nID                                       : 1\nFormat                                   : AVC\nFormat/Info                              : Advanced Video Codec\nFormat profile                           : Main@L3\nFormat settings, CABAC                   : Yes\nFormat settings, ReFrames                : 1 frame\nCodec ID                                 : avc1\nCodec ID/Info                            : Advanced Video Coding\nDuration                                 : 2 h 1 min\nBit rate                                 : 1 285 kb/s\nWidth                                    : 854 pixels\nHeight                                   : 480 pixels\nDisplay aspect ratio                     : 16:9\nFrame rate mode                          : Constant\nFrame rate                               : 25.000 FPS\nColor space                              : YUV\nChroma subsampling                       : 4:2:0\nBit depth                                : 8 bits\nScan type                                : Progressive\nBits/(Pixel*Frame)                       : 0.125\nStream size                              : 1.09 GiB (91%)\nColor range                              : Limited\nColor primaries                          : BT.709\nTransfer characteristics                 : BT.709\nMatrix coefficients                      : BT.709\n\nAudio\nID                                       : 2\nFormat                                   : AAC\nFormat/Info                              : Advanced Audio Codec\nFormat profile                           : LC\nCodec ID                                 : 40\nDuration                                 : 2 h 1 min\nBit rate mode                            : Constant\nBit rate                                 : 126 kb/s\nChannel(s)                               : 2 channels\nChannel positions                        : Front: L R\nSampling rate                            : 44.1 kHz\nFrame rate                               : 43.066 FPS (1024 spf)\nCompression mode                         : Lossy\nStream size                              : 109 MiB (9%)\nDefault                                  : Yes\nAlternate group                          : 1\n\n===========================================================\n\nThe film was extracted via the online swarm, it was then recorded into a VHS tape.\n\nThe IP's present in the swarm were logged in a text file, which ended being printed into a binary text.\n\nThe tape from the VHS was extracted from the cartridge, and set under a ruler. Every centimeter was taken either as a \"0\" or a \"1\" binary value. The order was read and assigned as the one from the binary code, for the IP addresses.\n\nA pair of buzz magnets, sized one centimeter in diameter, were used to write the \"0\" values on the tape, by placing them on top of the ruler. Big magnets erase magnetic tape, just like a zero value (about 66 IP addresses can remix 70 meters of tape).\n\nThe final capture from the VCR, is an audiovisual remix for the commercial film (protected as the holy good, that must not be touched, or used elsewhere but the heavenly main market) and the exact internet addresses of those who broke the business  copyright rules, inside the autonomous web (the P2P swarm), both merged as one last piece of video.\n\nThe same process will be repeated using the video from the last Baywatch VHS edition, triggered by each time a new VHS edition  is rejected by the Content ID system, creating a loop between the centralized, and the decentralized networks.\n\n============================================================\n\nLet's find a neutral place where sharing will flourish, take everything from the past and your surroundings, and make  different configurations with it.",
			"magnet": "magnet:?xt=urn:btih:c783a40ccf05c41d02eaa9503bdb2b307371ece9&dn=Baywatch.2017.FIRST.VHS.EDITION.480p.VHS.x264-TRACKEDiP&tr=udp%3A%2F%2Ftracker.leechers-paradise.org%3A6969&tr=udp%3A%2F%2Fzer0day.ch%3A1337&tr=udp%3A%2F%2Fopen.demonii.com%3A1337&tr=udp%3A%2F%2Ftracker.coppersurfer.tk%3A6969&tr=udp%3A%2F%2Fexodus.desync.com%3A6969",
			"torrent_file": "data/users/1Njrafe99ufDwSryeyohshvYwAkaqBYPrW/Baywatch.2017.FIRST.VHS.EDITION.480p.WEB-DL.x264-TRACKEDiP.torrent",
			"added": 1508140244
		}
	],
	"topic_vote": {},
	"next_comment_id": 1,
	"comment": {},
	"comment_vote": {}
}